<svg width="1024" height="1024" viewBox="0 0 1024 1024" fill="none" xmlns="http://www.w3.org/2000/svg">
  <defs>
    <linearGradient id="bg" x1="96" y1="96" x2="928" y2="928" gradientUnits="userSpaceOnUse">
      <stop stop-color="#081225"/>
      <stop offset="0.52" stop-color="#0E1D3F"/>
      <stop offset="1" stop-color="#121935"/>
    </linearGradient>
    <linearGradient id="glow" x1="256" y1="188" x2="796" y2="836" gradientUnits="userSpaceOnUse">
      <stop stop-color="#E2CBFF"/>
      <stop offset="0.5" stop-color="#5C79FF"/>
      <stop offset="1" stop-color="#393BB2"/>
    </linearGradient>
    <linearGradient id="accent" x1="242" y1="256" x2="794" y2="768" gradientUnits="userSpaceOnUse">
      <stop stop-color="#74F7CF"/>
      <stop offset="1" stop-color="#39C4FF"/>
    </linearGradient>
    <filter id="soft" x="92" y="92" width="840" height="840" filterUnits="userSpaceOnUse" color-interpolation-filters="sRGB">
      <feGaussianBlur stdDeviation="18"/>
    </filter>
  </defs>
  <rect x="72" y="72" width="880" height="880" rx="220" fill="url(#bg)"/>
  <rect x="88" y="88" width="848" height="848" rx="204" stroke="url(#glow)" stroke-width="20"/>
  <g opacity="0.75" filter="url(#soft)">
    <circle cx="272" cy="232" r="72" fill="#5AE9BF"/>
    <circle cx="760" cy="250" r="78" fill="#8794FF"/>
    <circle cx="790" cy="790" r="82" fill="#535AF5"/>
  </g>
  <path d="M284 724L412 256H498L370 724H284Z" fill="url(#accent)"/>
  <path d="M516 724L644 256H730L602 724H516Z" fill="url(#accent)"/>
  <path d="M262 564L292 456H766L736 564H262Z" fill="url(#glow)"/>
  <path d="M230 806L260 696H734L704 806H230Z" fill="url(#glow)"/>
  <circle cx="230" cy="216" r="34" fill="#FF6B6B"/>
  <circle cx="314" cy="216" r="34" fill="#F7C948"/>
  <circle cx="398" cy="216" r="34" fill="#39D98A"/>
</svg>
